With:Gary Oldman, Winona Ryder and Anthony Hopkins

De jonge advocaat Harker krijgt de opdracht om een klant te bezoeken in Oost Europa. Hij wordt daar gevangen gehouden door de graaf en vampier Dracula die afreist naar Londen geobsedeerd door een foto van Harkers verloofde Mina. In Londen begint hij de jacht op Mina waarbij hij o.a. Mina's beste vriendin Lucy tot slachtoffer maakt. Lucy's vrienden slaan de handen ineen om deze vampier weg te jagen.

The vampire comes to England to seduce a visitor's fiancée and inflict havoc in the foreign land. 

General:

Complete name                    : Bram Stoker's Dracula\Bram Stoker's Dracula.avi
Format                           : AVI
Format/Info                      : Audio Video Interleave
File size                        : 1.56 GiB
Duration                         : 2h 2mn
Overall bit rate                 : 1 827 Kbps

Video:

Format                           : MPEG-4 Visual
Format profile                   : Simple@L3
Format settings, BVOP            : No
Format settings, QPel            : No
Format settings, GMC             : No warppoints
Format settings, Matrix          : Default (H.263)
Codec ID                         : XVID
Codec ID/Hint                    : XviD
Duration                         : 2h 2mn
Bit rate                         : 1 433 Kbps
Width                            : 652 pixels
Height                           : 352 pixels
Display aspect ratio             : 1.852
Frame rate                       : 25.000 fps
Color space                      : YUV
Chroma subsampling               : 4:2:0
Bit depth                        : 8 bits
Scan type                        : Progressive
Bits/(Pixel*Frame)               : 0.250
Stream size                      : 1.22 GiB (78%)
Writing library                  : XviD 1.1.2 (UTC 2006-11-01)

Audio:

Format                           : AC-3
Format/Info                      : Audio Coding 3
Mode extension                   : CM (complete main)
Codec ID                         : 2000
Duration                         : 2h 2mn
Bit rate mode                    : Constant
Bit rate                         : 384 Kbps
Channel(s)                       : 6 channels
Channel positions                : Front: L C R, Side: L R, LFE
Sampling rate                    : 48.0 KHz
Bit depth                        : 16 bits
Stream size                      : 336 MiB (21%)
Alignment                        : Aligned on interleaves
Interleave, duration             : 32 ms (0.80 video frame)
Interleave, preload duration     : 288 ms
